<svg width="131" height="131" viewBox="0 0 131 23" fill="none" xmlns="http://www.w3.org/2000/svg">
<path fill-rule="evenodd" clip-rule="evenodd" d="M22.377 11.725C22.377 18.3632 26.6754 22.4985 33.3136 22.4985C39.9518 22.4985 44.2503 18.3632 44.2503 11.725C44.2503 5.08688 39.9518 0.897217 33.3136 0.897217C26.6754 0.897217 22.377 5.03247 22.377 11.725ZM28.9063 11.725C28.9063 6.33834 30.321 3.78101 33.3136 3.78101C36.3062 3.78101 37.7209 6.33834 37.7209 11.725C37.7209 17.1118 36.3062 19.6691 33.3136 19.6691C30.2666 19.6691 28.9063 17.1118 28.9063 11.725Z" fill="#0872B9"/>
<path fill-rule="evenodd" clip-rule="evenodd" d="M0.939453 1.7135V9.38548H3.76884C3.76884 6.33845 4.69383 4.37965 8.12173 4.37965V17.8192C8.12173 18.581 7.68644 19.0163 6.9791 19.0163H5.12912V21.6824H16.8275V19.0163H15.032C14.2702 19.0163 13.8893 18.581 13.8893 17.8192V4.37965C17.3172 4.37965 18.2422 6.28404 18.2422 9.38548H21.0716V1.76791H0.939453V1.7135Z" fill="#0872B9"/>
<path fill-rule="evenodd" clip-rule="evenodd" d="M45.0664 1.71335V4.3795H46.9164C47.6781 4.3795 48.059 4.81479 48.059 5.57654V17.8191C48.059 18.5808 47.6237 19.0161 46.9164 19.0161H45.0664V21.6278H56.928V18.9617H54.9148C54.1531 18.9617 53.7722 18.5264 53.7722 17.7647V13.0309H57.0913C62.6412 13.0309 65.5794 11.453 65.5794 7.3177C65.5794 3.18245 62.6412 1.65894 57.6898 1.65894H45.0664V1.71335ZM53.7722 4.3795H56.8736C58.5604 4.3795 59.9207 5.52213 59.9207 7.42652C59.9207 9.2765 58.506 10.4191 56.3839 10.4191H53.7722V4.3795Z" fill="#0872B9"/>
<path fill-rule="evenodd" clip-rule="evenodd" d="M92.1307 1.7135L87.1249 16.7854C86.5264 18.6354 86.0911 19.0707 85.0573 19.0707H84.0234V21.7368H92.8925V19.0707H92.0219C91.2057 19.0707 90.1719 18.9618 90.1719 18.4721C90.1719 18.0369 90.2807 17.6016 90.6072 16.5678L90.9337 15.3707H96.7557L97.4086 17.5472C97.5174 17.9824 97.5718 18.3089 97.5718 18.6354C97.5718 18.9618 96.8101 19.0707 95.9395 19.0707H95.0145V21.7368H105.734V19.1251H104.972C103.938 19.1251 103.503 18.6898 102.904 16.8398L98.1703 1.76791H92.1307V1.7135ZM93.9263 6.17522L95.7763 12.6502H91.6954L93.8719 6.17522H93.9263Z" fill="#0872B9"/>
<path fill-rule="evenodd" clip-rule="evenodd" d="M121.516 1.7135V4.37965H123.366C124.128 4.37965 124.509 4.81494 124.509 5.5767V15.4795L116.728 1.7135H107.043V4.37965H108.893C109.655 4.37965 110.036 4.81494 110.036 5.5767V17.8192C110.036 18.581 109.6 19.0163 108.893 19.0163H107.043V21.6824H116.347V19.0163H114.497C113.736 19.0163 113.355 18.581 113.355 17.8192V6.82815L121.734 21.6824H127.828V5.5767C127.828 4.81494 128.263 4.37965 128.971 4.37965H130.766V1.7135H121.462H121.516Z" fill="#0872B9"/>
<path fill-rule="evenodd" clip-rule="evenodd" d="M66.5039 1.71335V4.3795H68.3539C69.1156 4.3795 69.4965 4.81479 69.4965 5.57654V17.8191C69.4965 18.5808 69.0612 19.0161 68.3539 19.0161H66.5039V21.6278H78.3655V18.9617H76.3523C75.5906 18.9617 75.2097 18.5264 75.2097 17.7647V13.0309H78.5288C84.0787 13.0309 87.0169 11.453 87.0169 7.3177C87.0169 3.18245 84.0787 1.65894 79.1273 1.65894H66.5039V1.71335ZM75.2097 4.3795H78.3111C79.9979 4.3795 81.3582 5.52213 81.3582 7.42652C81.3582 9.2765 79.9435 10.4191 77.8214 10.4191H75.2097V4.3795Z" fill="#0872B9"/>
</svg>
